<svg width="53" height="56" viewBox="0 0 53 56" fill="none" xmlns="http://www.w3.org/2000/svg">
<path d="M42.603 56.2154H10.3249C4.46644 56.2154 -0.288452 51.4406 -0.288452 45.5576V19.9237C-0.288452 14.0407 4.46644 9.26593 10.3249 9.26593H42.603C48.4614 9.26593 53.2163 14.0407 53.2163 19.9237V45.5576C53.2163 51.4406 48.4614 56.2154 42.603 56.2154Z" fill="#F9B842"/>
<path d="M42.603 56.2154H10.3249C4.46644 56.2154 -0.288452 51.4406 -0.288452 45.5576V19.9237C-0.288452 14.0407 4.46644 9.26593 10.3249 9.26593H42.603C48.4614 9.26593 53.2163 14.0407 53.2163 19.9237V45.5576C53.2163 51.4406 48.4614 56.2154 42.603 56.2154Z" fill="#FFD27B"/>
<path d="M43.9824 4.94742C49.0781 4.94742 53.2163 9.49407 53.2163 15.1163V46.0465C53.2163 51.6524 48.0882 56.2154 42.9763 56.2154H31.584V4.94742H43.9824Z" fill="url(#paint0_linear_194_315)"/>
<path d="M8.94544 4.94742C3.84975 4.94742 -0.288473 9.49407 -0.288473 15.1163V46.0465C-0.288473 51.6524 4.83968 56.2154 9.9516 56.2154H21.3439V4.94742H8.94544Z" fill="url(#paint1_linear_194_315)"/>
<path d="M42.603 46.8613H10.3249C4.46644 46.8613 -0.288452 42.0865 -0.288452 36.2036V10.5859C-0.288452 4.70299 4.46644 -0.0718079 10.3249 -0.0718079H42.603C48.4614 -0.0718079 53.2163 4.70299 53.2163 10.5859V36.2199C53.2163 42.0865 48.4614 46.8613 42.603 46.8613Z" fill="#FFDE32"/>
<defs>
<linearGradient id="paint0_linear_194_315" x1="60.2829" y1="30.5824" x2="31.5874" y2="30.5824" gradientUnits="userSpaceOnUse">
<stop stop-color="#FFBE5C"/>
<stop offset="0.84375" stop-color="#FFA90B" stop-opacity="0"/>
</linearGradient>
<linearGradient id="paint1_linear_194_315" x1="-7.35509" y1="30.5824" x2="21.3405" y2="30.5824" gradientUnits="userSpaceOnUse">
<stop stop-color="#FFBE5C"/>
<stop offset="0.84375" stop-color="#FFA90B" stop-opacity="0"/>
</linearGradient>
</defs>
</svg>
