<svg width="37" height="40" xmlns="http://www.w3.org/2000/svg" fill="none">
 <defs>
  <clipPath id="clip0_194_347">
   <rect id="svg_1" fill="white" height="40" width="37"/>
  </clipPath>
  <linearGradient y2="-0.00207" x2="0.50001" y1="1.0189" x1="0.50001" id="paint0_linear_194_347">
   <stop stop-color="#FF9302"/>
   <stop stop-color="#FCD60A" offset="1"/>
  </linearGradient>
  <linearGradient y2="0.5" x2="0.99992" y1="0.5" x1="0" id="paint1_linear_194_347">
   <stop stop-color="#FDE329"/>
   <stop stop-color="#FFED78" offset="1"/>
  </linearGradient>
  <linearGradient y2="0.5" x2="0.99992" y1="0.5" x1="0" id="paint2_linear_194_347">
   <stop stop-color="#FDE329"/>
   <stop stop-color="#FFED78" offset="1"/>
  </linearGradient>
 </defs>
 <g>
  <title>Layer 1</title>
  <g id="svg_2" clip-path="url(#clip0_194_347)">
   <path id="svg_3" fill="#FF7F0E" d="m17.9181,5.88573c2.979,0 6.1098,10.26987 6.1098,10.26987c0,0 7.6245,-2.3175 10.9513,-1.0508c0.974,0.3714 0.9013,2.6095 0.4586,3.9619c-0.9361,2.8381 -6.8118,8.5746 -6.8118,8.5746c0,0 2.6595,10.3365 0.2498,12.0952c-2.4097,1.7587 -10.9577,-4.7016 -10.9577,-4.7016c0,0 -8.54477,6.4603 -10.95768,4.7016c-2.40974,-1.7587 0.37,-12.5301 0.37,-12.5301c0,0 -6.23307,-4.4699 -7.14068,-8.3905c-0.20872,-0.8953 -0.45855,-3.4476 0.51547,-3.8191c3.32684,-1.2635 11.09999,1.1588 11.09999,1.1588c0,0 3.1339,-10.26987 6.1129,-10.26987z"/>
   <path id="svg_4" fill="url(#paint0_linear_194_347)" d="m17.9182,2.40636c2.979,0 6.1098,10.26984 6.1098,10.26984c0,0 10.6984,-0.1841 11.6186,2.6603c0.9203,2.8445 -7.8427,9.0064 -7.8427,9.0064c0,0 3.4786,10.1555 1.0689,11.9143c-2.4098,1.7587 -10.9577,-4.7016 -10.9577,-4.7016c0,0 -8.54481,6.4603 -10.95771,4.7016c-2.40975,-1.7588 1.06889,-11.9143 1.06889,-11.9143c0,0 -8.75667,-6.1619 -7.83641,-9.0064c0.92025,-2.8444 11.61863,-2.6603 11.61863,-2.6603c0,0 3.1308,-10.26984 6.1097,-10.26984z"/>
   <path id="svg_5" fill="#FFF3C7" d="m28.8758,36.2571c-0.2055,0.1461 -0.4459,0.273 -0.7084,0.3143c-0.2561,0.054 -0.5218,0.054 -0.7811,0.0445c-0.5218,-0.035 -1.0341,-0.1524 -1.5337,-0.3016c-0.993,-0.3111 -1.9386,-0.7492 -2.862,-1.2191c-0.9266,-0.4666 -1.8121,-1.0032 -2.688,-1.5524c-0.8729,-0.5587 -1.7204,-1.1396 -2.5584,-1.7587l0.3478,0c-0.838,0.6159 -1.6887,1.2 -2.5583,1.7587c-0.876,0.5492 -1.7615,1.0858 -2.6881,1.5524c-0.9234,0.4699 -1.8689,0.9048 -2.86193,1.2159c-0.49965,0.146 -1.0088,0.2667 -1.53376,0.3016c-0.26248,0.0095 -0.52495,0.0127 -0.78111,-0.0445c-0.25931,-0.0412 -0.49966,-0.165 -0.70837,-0.3143c0.22453,0.1239 0.46487,0.2159 0.72102,0.2254c0.24983,0.0318 0.50282,0.0096 0.75265,-0.0222c0.49966,-0.0762 0.98351,-0.2317 1.45786,-0.4158c0.94874,-0.3588 1.85634,-0.8318 2.74184,-1.3397c1.7614,-1.0254 3.4723,-2.1683 5.1104,-3.381l0.1739,-0.1301l0.1739,0.1301c1.635,1.2159 3.3459,2.3556 5.1105,3.3841c0.8823,0.508 1.7931,0.981 2.7418,1.3397c0.4712,0.1842 0.9582,0.3429 1.4578,0.4159c0.2499,0.0317 0.5029,0.054 0.7527,0.0222c0.253,-0.0095 0.4933,-0.1016 0.721,-0.2254z"/>
   <path id="svg_6" fill="#CF6100" d="m17.9181,6.00953c2.3497,0 4.8227,8.10477 4.8227,8.10477c0,0 8.4404,-0.146 9.1646,2.0984c0.7273,2.2444 -6.1857,7.1079 -6.1857,7.1079c0,0 2.745,8.0127 0.8444,9.4c-1.9006,1.3873 -8.646,-3.7111 -8.646,-3.7111c0,0 -6.7422,5.0984 -8.64596,3.7111c-1.9006,-1.3873 0.84436,-9.4 0.84436,-9.4c0,0 -6.913,-4.8666 -6.18565,-7.1079c0.72735,-2.2444 9.16775,-2.0984 9.16775,-2.0984c0,0 2.4699,-8.10477 4.8195,-8.10477z"/>
   <path id="svg_7" fill="url(#paint1_linear_194_347)" d="m17.9181,5.42857c2.3497,0 4.8227,8.10473 4.8227,8.10473c0,0 8.4404,-0.146 9.1678,2.0984c0.7273,2.2445 -6.1857,7.108 -6.1857,7.108c0,0 2.745,8.0127 0.8444,9.4c-1.9006,1.3873 -8.646,-3.7111 -8.646,-3.7111c0,0 -6.7422,5.0984 -8.646,3.7111c-1.9006,-1.3873 0.8444,-9.4 0.8444,-9.4c0,0 -6.9162,-4.8635 -6.18885,-7.108c0.72736,-2.2444 9.16775,-2.0984 9.16775,-2.0984c0,0 2.4699,-8.10473 4.8195,-8.10473z"/>
   <path id="svg_8" fill="url(#paint2_linear_194_347)" d="m17.9181,5.42857c2.3497,0 4.8227,8.10473 4.8227,8.10473c0,0 8.4404,-0.146 9.1678,2.0984c0.7273,2.2445 -6.1857,7.108 -6.1857,7.108c0,0 2.745,8.0127 0.8444,9.4c-1.9006,1.3873 -8.646,-3.7111 -8.646,-3.7111c0,0 -6.7422,5.0984 -8.646,3.7111c-1.9006,-1.3873 0.8444,-9.4 0.8444,-9.4c0,0 -6.9162,-4.8635 -6.18885,-7.108c0.72736,-2.2444 9.16775,-2.0984 9.16775,-2.0984c0,0 2.4699,-8.10473 4.8195,-8.10473z"/>
   <path id="svg_9" fill="#FFFC81" d="m26.5641,32.1397c-0.1676,0.1111 -0.3573,0.2063 -0.5597,0.2317c-0.2024,0.0413 -0.408,0.0381 -0.6135,0.0254c-0.408,-0.0317 -0.8096,-0.1301 -1.1986,-0.2508c-0.7779,-0.2508 -1.5179,-0.6031 -2.2421,-0.9777c-0.7242,-0.3746 -1.4199,-0.7461 -2.1062,-1.1842c-0.6862,-0.4412 -1.3566,-0.746 -2.0144,-1.327l0.1739,0c-0.6578,0.581 -1.3314,0.8858 -2.0144,1.327c-0.6863,0.4381 -1.3788,0.8381 -2.1062,1.2127c-0.721,0.3746 -1.4642,0.7111 -2.2421,0.9651c-0.389,0.1206 -0.7906,0.2127 -1.1986,0.2445c-0.2055,0.0127 -0.4111,0.0095 -0.61348,-0.0286c-0.20556,-0.0254 -0.39214,-0.1206 -0.55975,-0.2318c0.17394,0.1016 0.36368,0.181 0.56607,0.1937c0.19926,0.0286 0.40166,0.0127 0.60086,-0.0095c0.3985,-0.054 0.7843,-0.1746 1.1606,-0.3143c0.7558,-0.2762 1.4768,-0.6445 2.182,-1.0413c1.4042,-0.7968 2.7608,-1.6921 4.0511,-2.6571l0.0854,-0.0635l0.0853,0.0635c1.2935,0.9682 2.647,1.8603 4.0511,2.6571c0.702,0.3968 1.4262,0.7651 2.182,1.0413c0.3763,0.1397 0.7622,0.2603 1.1606,0.3143c0.1993,0.0222 0.4016,0.0381 0.6009,0.0095c0.2055,-0.0191 0.3921,-0.0984 0.5692,-0.2z"/>
   <g id="svg_10" opacity="0.65"/>
   <g id="svg_12"/>
  </g>
 </g>
</svg>